# xmcd
#
# Track frame offsets: 
#        150
#        17933
#        33041
#        51458
#        72625
#        86239
#        107027
#        125479
#        148038
#
# Disc length: 2065 seconds
#
# Revision: 0
# Processed by: cddbd v1.5.2PL0 Copyright (c) Steve Scherf et al.
# Submitted via: ExactAudioCopy v0.99pb4
#
DISCID=85080f09
DTITLE=AP - If You Come Out To Party
DYEAR=1900
DGENRE=R&B
TTITLE0=If You Come Out To Party
TTITLE1=Move Your Body
TTITLE2=Heavy Slide
TTITLE3=I Miss You
TTITLE4=Take My Hand
TTITLE5=Juke Joint Woman
TTITLE6=Heavy Slide Remix
TTITLE7=Move A Little Closer
TTITLE8=Blessing Song
EXTD=
EXTT0=
EXTT1=
EXTT2=
EXTT3=
EXTT4=
EXTT5=
EXTT6=
EXTT7=
EXTT8=
PLAYORDER=
